<svg fill="#ffffff" width="64px" height="64px" viewBox="0 0 24 24" xmlns="http://www.w3.org/2000/svg" style="--darkreader-inline-fill: #181a1b;" data-darkreader-inline-fill=""><g id="SVGRepo_bgCarrier" stroke-width="0"></g><g id="SVGRepo_tracerCarrier" stroke-linecap="round" stroke-linejoin="round"></g><g id="SVGRepo_iconCarrier"><path d="M3.012,10.981,3,11H5v9a1,1,0,0,0,1,1H18a1,1,0,0,0,1-1V11h2a1,1,0,0,0,.555-1.832l-9-6a1,1,0,0,0-1.11,0l-9,6a1,1,0,0,0-.277,1.387A.98.98,0,0,0,3.012,10.981ZM10,14a1,1,0,0,1,1-1h2a1,1,0,0,1,1,1v5H10Z"></path></g></svg>