<svg version="1.1" id="_x32_" xmlns="http://www.w3.org/2000/svg" xmlns:xlink="http://www.w3.org/1999/xlink" viewBox="0 0 512 512" xml:space="preserve" fill="#000000"><g id="SVGRepo_bgCarrier" stroke-width="0"></g><g id="SVGRepo_tracerCarrier" stroke-linecap="round" stroke-linejoin="round"></g><g id="SVGRepo_iconCarrier"> <style type="text/css"> .st0{fill:#ffffff;} </style> <g> <rect x="141.576" y="464" class="st0" width="221.09" height="48"></rect> <path class="st0" d="M389.818,16.484c0-10.168,0-16.484,0-16.484H250.182H110.545c0,0,0,6.316,0,16.484H22.723h-0.18h-0.24v80.484 c0,28.688,10.26,55.172,28.891,74.578c18.957,19.746,45.358,31.637,78.666,35.52c31.883,49.887,92.047,77.332,92.047,100.426 c0,31.418-31.42,84.828-31.42,84.828v34.25v0.07v0.242h119.391V392.32c0,0-31.418-53.41-31.418-84.828 c0-22.937,59.326-50.164,91.373-99.398c39.158-2.187,69.742-14.43,90.974-36.547c18.631-19.406,28.891-45.89,28.891-74.578V16.484 H389.818z M59.152,96.969V53.332h51.393c0,30.258,0,66.66,0,90.184c0,6.726,0.707,13.106,1.791,19.289 c0.162,1.156,0.258,2.308,0.446,3.469C65.231,152.387,59.152,115.039,59.152,96.969z M190.254,146.359l-0.094,41.715 c-23.192-10.004-44.705-43.114-44.705-56.367c0-13.278,0-92.918,0-92.918h44.799C190.254,38.789,190.254,92.039,190.254,146.359z M452.848,96.969c0,15.852-4.676,46.531-37.912,63.203c-7.715,3.844-16.972,6.922-28.056,8.879 c1.883-8.039,2.939-16.531,2.939-25.535c0-23.524,0-59.926,0-90.184h63.03V96.969z"></path> </g> </g></svg>